<svg width="200" height="200" viewBox="0 0 200 200" xmlns="http://www.w3.org/2000/svg">
    <defs/>
    <path fill="#000000" stroke="none" d="M 0 0 L 200 0 L 200 200 L 0 200 Z"/>
    <path fill="none" stroke="#0000ff" d="M 100 100 L 100.86719 100.5"/>
    <path fill="none" stroke="#0000ff" d="M 100.86719 100.5 L 101.36718 99.63281"/>
    <path fill="none" stroke="#00ffff" d="M 101.36718 99.63281 L 98.76953 101.13281"/>
    <path fill="none" stroke="#00ffff" d="M 98.76953 101.13281 L 99.26953 102"/>
    <path fill="none" stroke="#00ff00" d="M 99.26953 102 L 99.26953 97"/>
    <path fill="none" stroke="#00ff00" d="M 99.26953 97 L 98.26953 97"/>
    <path fill="none" stroke="#ff0000" d="M 98.26953 97 L 104.33203 100.5"/>
    <path fill="none" stroke="#ff0000" d="M 104.33203 100.5 L 104.83203 99.63281"/>
    <path fill="none" stroke="#ff00ff" d="M 104.83203 99.63281 L 97.03906 104.13281"/>
    <path fill="none" stroke="#ff00ff" d="M 97.03906 104.13281 L 97.53906 105"/>
    <path fill="none" stroke="#ffff00" d="M 97.53906 105 L 97.53906 94"/>
    <path fill="none" stroke="#ffff00" d="M 97.53906 94 L 96.53906 94"/>
    <path fill="none" stroke="#ffffff" d="M 96.53906 94 L 107.79688 100.5"/>
    <path fill="none" stroke="#ffffff" d="M 107.79688 100.5 L 108.296875 99.63281"/>
    <path fill="none" stroke="#a52a2a" d="M 108.296875 99.63281 L 95.30468 107.13281"/>
    <path fill="none" stroke="#a52a2a" d="M 95.30468 107.13281 L 95.804695 108"/>
    <path fill="none" stroke="#d2b48c" d="M 95.804695 108 L 95.804695 91"/>
    <path fill="none" stroke="#d2b48c" d="M 95.804695 91 L 94.80469 91"/>
    <path fill="none" stroke="#228b22" d="M 94.80469 91 L 111.25781 100.5"/>
    <path fill="none" stroke="#228b22" d="M 111.25781 100.5 L 111.75781 99.63281"/>
    <path fill="none" stroke="#7fffd4" d="M 111.75781 99.63281 L 93.57031 110.132805"/>
    <path fill="none" stroke="#7fffd4" d="M 93.57031 110.132805 L 94.07031 111"/>
    <path fill="none" stroke="#fa8072" d="M 94.07031 111 L 94.07031 88"/>
    <path fill="none" stroke="#fa8072" d="M 94.07031 88 L 93.07031 88"/>
    <path fill="none" stroke="#800080" d="M 93.07031 88 L 114.72265 100.5"/>
    <path fill="none" stroke="#800080" d="M 114.72265 100.5 L 115.222664 99.63281"/>
    <path fill="none" stroke="#ffa500" d="M 115.222664 99.63281 L 91.83984 113.13281"/>
    <path fill="none" stroke="#ffa500" d="M 91.83984 113.13281 L 92.33984 114"/>
    <path fill="none" stroke="#808080" d="M 92.33984 114 L 92.33984 85"/>
    <path fill="none" stroke="#808080" d="M 92.33984 85 L 91.33985 85"/>
    <path fill="none" stroke="#00ffff" d="M 91.33985 85 L 118.1875 100.5"/>
    <path fill="none" stroke="#00ffff" d="M 118.1875 100.5 L 118.6875 99.63281"/>
    <path fill="none" stroke="#00ff00" d="M 118.6875 99.63281 L 90.109375 116.13281"/>
    <path fill="none" stroke="#00ff00" d="M 90.109375 116.13281 L 90.609375 117"/>
    <path fill="none" stroke="#ff0000" d="M 90.609375 117 L 90.609375 82"/>
    <path fill="none" stroke="#ff0000" d="M 90.609375 82 L 89.60938 82"/>
    <path fill="none" stroke="#ff00ff" d="M 89.60938 82 L 121.65234 100.5"/>
    <path fill="none" stroke="#ff00ff" d="M 121.65234 100.5 L 122.15234 99.63281"/>
    <path fill="none" stroke="#ffff00" d="M 122.15234 99.63281 L 88.378914 119.13281"/>
    <path fill="none" stroke="#ffff00" d="M 88.378914 119.13281 L 88.87891 120"/>
    <path fill="none" stroke="#ffffff" d="M 88.87891 120 L 88.87891 79"/>
    <path fill="none" stroke="#ffffff" d="M 88.87891 79 L 87.8789 79"/>
    <path fill="none" stroke="#a52a2a" d="M 87.8789 79 L 125.11719 100.5"/>
    <path fill="none" stroke="#a52a2a" d="M 125.11719 100.5 L 125.61718 99.63281"/>
    <path fill="none" stroke="#d2b48c" d="M 125.61718 99.63281 L 86.64453 122.132805"/>
    <path fill="none" stroke="#d2b48c" d="M 86.64453 122.132805 L 87.14453 123"/>
    <path fill="none" stroke="#228b22" d="M 87.14453 123 L 87.14453 76"/>
    <path fill="none" stroke="#228b22" d="M 87.14453 76 L 86.14453 76"/>
    <path fill="none" stroke="#7fffd4" d="M 86.14453 76 L 128.57813 100.5"/>
    <path fill="none" stroke="#7fffd4" d="M 128.57813 100.5 L 129.07813 99.63281"/>
    <path fill="none" stroke="#fa8072" d="M 129.07813 99.63281 L 84.91016 125.13281"/>
    <path fill="none" stroke="#fa8072" d="M 84.91016 125.13281 L 85.41016 126"/>
    <path fill="none" stroke="#800080" d="M 85.41016 126 L 85.41016 73"/>
    <path fill="none" stroke="#800080" d="M 85.41016 73 L 84.41016 73"/>
    <path fill="none" stroke="#ffa500" d="M 84.41016 73 L 132.04297 100.5"/>
    <path fill="none" stroke="#ffa500" d="M 132.04297 100.5 L 132.54297 99.63281"/>
    <path fill="none" stroke="#808080" d="M 132.54297 99.63281 L 83.17969 128.13281"/>
    <path fill="none" stroke="#808080" d="M 83.17969 128.13281 L 83.67969 129"/>
    <path fill="none" stroke="#00ffff" d="M 83.67969 129 L 83.67969 70"/>
    <path fill="none" stroke="#00ffff" d="M 83.67969 70 L 82.67969 70"/>
    <path fill="none" stroke="#00ff00" d="M 82.67969 70 L 135.50781 100.5"/>
    <path fill="none" stroke="#00ff00" d="M 135.50781 100.5 L 136.00781 99.63281"/>
    <path fill="none" stroke="#ff0000" d="M 136.00781 99.63281 L 81.44922 131.13281"/>
    <path fill="none" stroke="#ff0000" d="M 81.44922 131.13281 L 81.94922 132"/>
    <path fill="none" stroke="#ff00ff" d="M 81.94922 132 L 81.94922 67"/>
    <path fill="none" stroke="#ff00ff" d="M 81.94922 67 L 80.94922 67"/>
    <path fill="none" stroke="#ffff00" d="M 80.94922 67 L 138.97266 100.5"/>
    <path fill="none" stroke="#ffff00" d="M 138.97266 100.5 L 139.47266 99.63281"/>
    <path fill="none" stroke="#ffffff" d="M 139.47266 99.63281 L 79.71875 134.13281"/>
    <path fill="none" stroke="#ffffff" d="M 79.71875 134.13281 L 80.21875 135"/>
    <path fill="none" stroke="#a52a2a" d="M 80.21875 135 L 80.21875 64"/>
    <path fill="none" stroke="#a52a2a" d="M 80.21875 64 L 79.21875 64"/>
    <path fill="none" stroke="#d2b48c" d="M 79.21875 64 L 142.4375 100.5"/>
    <path fill="none" stroke="#d2b48c" d="M 142.4375 100.5 L 142.9375 99.63281"/>
    <path fill="none" stroke="#228b22" d="M 142.9375 99.63281 L 77.984375 137.13281"/>
    <path fill="none" stroke="#228b22" d="M 77.984375 137.13281 L 78.484375 138"/>
    <path fill="none" stroke="#7fffd4" d="M 78.484375 138 L 78.484375 61"/>
    <path fill="none" stroke="#7fffd4" d="M 78.484375 61 L 77.484375 61"/>
    <path fill="none" stroke="#fa8072" d="M 77.484375 61 L 145.89844 100.5"/>
    <path fill="none" stroke="#fa8072" d="M 145.89844 100.5 L 146.39844 99.63281"/>
    <path fill="none" stroke="#800080" d="M 146.39844 99.63281 L 76.25 140.13281"/>
    <path fill="none" stroke="#800080" d="M 76.25 140.13281 L 76.75 141"/>
    <path fill="none" stroke="#ffa500" d="M 76.75 141 L 76.75 58"/>
    <path fill="none" stroke="#ffa500" d="M 76.75 58 L 75.75 58"/>
    <path fill="none" stroke="#808080" d="M 75.75 58 L 149.36328 100.5"/>
    <path fill="none" stroke="#808080" d="M 149.36328 100.5 L 149.86328 99.63281"/>
    <path fill="none" stroke="#00ffff" d="M 149.86328 99.63281 L 74.51953 143.13281"/>
    <path fill="none" stroke="#00ffff" d="M 74.51953 143.13281 L 75.01953 144"/>
    <path fill="none" stroke="#00ff00" d="M 75.01953 144 L 75.01953 55"/>
    <path fill="none" stroke="#00ff00" d="M 75.01953 55 L 74.01953 55"/>
    <path fill="none" stroke="#ff0000" d="M 74.01953 55 L 152.82813 100.5"/>
    <path fill="none" stroke="#ff0000" d="M 152.82813 100.5 L 153.32813 99.63281"/>
    <path fill="none" stroke="#ff00ff" d="M 153.32813 99.63281 L 72.78906 146.13281"/>
    <path fill="none" stroke="#ff00ff" d="M 72.78906 146.13281 L 73.28906 147"/>
    <path fill="none" stroke="#ffff00" d="M 73.28906 147 L 73.28906 52"/>
    <path fill="none" stroke="#ffff00" d="M 73.28906 52 L 72.28906 52"/>
    <path fill="none" stroke="#ffffff" d="M 72.28906 52 L 156.29297 100.5"/>
    <path fill="none" stroke="#ffffff" d="M 156.29297 100.5 L 156.79297 99.63281"/>
    <path fill="none" stroke="#a52a2a" d="M 156.79297 99.63281 L 71.05469 149.13281"/>
    <path fill="none" stroke="#a52a2a" d="M 71.05469 149.13281 L 71.55469 150"/>
    <path fill="none" stroke="#d2b48c" d="M 71.55469 150 L 71.55469 49"/>
    <path fill="none" stroke="#d2b48c" d="M 71.55469 49 L 70.55469 49"/>
    <path fill="none" stroke="#228b22" d="M 70.55469 49 L 159.7539 100.5"/>
    <path fill="none" stroke="#228b22" d="M 159.7539 100.5 L 160.2539 99.63281"/>
    <path fill="none" stroke="#7fffd4" d="M 160.2539 99.63281 L 69.32031 152.13281"/>
    <path fill="none" stroke="#7fffd4" d="M 69.32031 152.13281 L 69.82031 153"/>
    <path fill="none" stroke="#fa8072" d="M 69.82031 153 L 69.82031 46"/>
    <path fill="none" stroke="#fa8072" d="M 69.82031 46 L 68.82031 46"/>
    <path fill="none" stroke="#800080" d="M 68.82031 46 L 163.21875 100.5"/>
    <path fill="none" stroke="#800080" d="M 163.21875 100.5 L 163.71875 99.63281"/>
    <path fill="none" stroke="#ffa500" d="M 163.71875 99.63281 L 67.58984 155.13281"/>
    <path fill="none" stroke="#ffa500" d="M 67.58984 155.13281 L 68.08984 156"/>
    <path fill="none" stroke="#808080" d="M 68.08984 156 L 68.08984 43"/>
    <path fill="none" stroke="#808080" d="M 68.08984 43 L 67.08984 43"/>
    <path fill="none" stroke="#00ffff" d="M 67.08984 43 L 166.6836 100.5"/>
    <path fill="none" stroke="#00ffff" d="M 166.6836 100.5 L 167.1836 99.63281"/>
    <path fill="none" stroke="#00ff00" d="M 167.1836 99.63281 L 65.859375 158.13281"/>
    <path fill="none" stroke="#00ff00" d="M 65.859375 158.13281 L 66.359375 159"/>
    <path fill="none" stroke="#ff0000" d="M 66.359375 159 L 66.359375 40"/>
    <path fill="none" stroke="#ff0000" d="M 66.359375 40 L 65.359375 40"/>
    <path fill="none" stroke="#ff00ff" d="M 65.359375 40 L 170.14844 100.5"/>
    <path fill="none" stroke="#ff00ff" d="M 170.14844 100.5 L 170.64844 99.63281"/>
    <path fill="none" stroke="#ffff00" d="M 170.64844 99.63281 L 64.12891 161.13281"/>
    <path fill="none" stroke="#ffff00" d="M 64.12891 161.13281 L 64.62891 162"/>
    <path fill="none" stroke="#ffffff" d="M 64.62891 162 L 64.62891 37"/>
    <path fill="none" stroke="#ffffff" d="M 64.62891 37 L 63.628906 37"/>
    <path fill="none" stroke="#a52a2a" d="M 63.628906 37 L 173.61328 100.5"/>
    <path fill="none" stroke="#a52a2a" d="M 173.61328 100.5 L 174.11328 99.63281"/>
    <path fill="none" stroke="#d2b48c" d="M 174.11328 99.63281 L 62.39453 164.13281"/>
    <path fill="none" stroke="#d2b48c" d="M 62.39453 164.13281 L 62.89453 165"/>
    <path fill="none" stroke="#228b22" d="M 62.89453 165 L 62.89453 34"/>
    <path fill="none" stroke="#228b22" d="M 62.89453 34 L 61.89453 34"/>
    <path fill="none" stroke="#7fffd4" d="M 61.89453 34 L 177.07422 100.5"/>
    <path fill="none" stroke="#7fffd4" d="M 177.07422 100.5 L 177.57422 99.63281"/>
    <path fill="none" stroke="#fa8072" d="M 177.57422 99.63281 L 60.660156 167.13281"/>
    <path fill="none" stroke="#fa8072" d="M 60.660156 167.13281 L 61.160156 168"/>
    <path fill="none" stroke="#800080" d="M 61.160156 168 L 61.160156 31"/>
    <path fill="none" stroke="#800080" d="M 61.160156 31 L 60.16016 31"/>
    <path fill="none" stroke="#ffa500" d="M 60.16016 31 L 180.53906 100.5"/>
    <path fill="none" stroke="#ffa500" d="M 180.53906 100.5 L 181.03906 99.63281"/>
    <path fill="none" stroke="#808080" d="M 181.03906 99.63281 L 58.92969 170.13281"/>
    <path fill="none" stroke="#808080" d="M 58.92969 170.13281 L 59.429688 171"/>
    <path fill="none" stroke="#00ffff" d="M 59.429688 171 L 59.429688 28"/>
    <path fill="none" stroke="#00ffff" d="M 59.429688 28 L 58.429688 28"/>
    <path fill="none" stroke="#00ff00" d="M 58.429688 28 L 184.0039 100.5"/>
    <path fill="none" stroke="#00ff00" d="M 184.0039 100.5 L 184.5039 99.63281"/>
    <path fill="none" stroke="#ff0000" d="M 184.5039 99.63281 L 57.199215 173.13283"/>
    <path fill="none" stroke="#ff0000" d="M 57.199215 173.13283 L 57.69922 174"/>
    <path fill="none" stroke="#ff00ff" d="M 57.69922 174 L 57.69922 25"/>
    <path fill="none" stroke="#ff00ff" d="M 57.69922 25 L 56.69922 25"/>
    <path fill="none" stroke="#ffff00" d="M 56.69922 25 L 187.46877 100.5"/>
    <path fill="none" stroke="#ffff00" d="M 187.46877 100.5 L 187.96877 99.63281"/>
    <path fill="none" stroke="#ffffff" d="M 187.96877 99.63281 L 55.464844 176.13281"/>
    <path fill="none" stroke="#ffffff" d="M 55.464844 176.13281 L 55.964848 177"/>
    <path fill="none" stroke="#a52a2a" d="M 55.964848 177 L 55.964848 22"/>
    <path fill="none" stroke="#a52a2a" d="M 55.964848 22 L 54.964844 22"/>
    <path fill="none" stroke="#d2b48c" d="M 54.964844 22 L 190.92969 100.5"/>
    <path fill="none" stroke="#d2b48c" d="M 190.92969 100.5 L 191.42969 99.63281"/>
    <path fill="none" stroke="#228b22" d="M 191.42969 99.63281 L 53.73047 179.13281"/>
    <path fill="none" stroke="#228b22" d="M 53.73047 179.13281 L 54.230465 180"/>
    <path fill="none" stroke="#7fffd4" d="M 54.230465 180 L 54.230465 19"/>
    <path fill="none" stroke="#7fffd4" d="M 54.230465 19 L 53.23047 19"/>
    <path fill="none" stroke="#fa8072" d="M 53.23047 19 L 194.39452 100.5"/>
    <path fill="none" stroke="#fa8072" d="M 194.39452 100.5 L 194.89455 99.63281"/>
    <path fill="none" stroke="#800080" d="M 194.89455 99.63281 L 52 182.13281"/>
    <path fill="none" stroke="#800080" d="M 52 182.13281 L 52.5 183"/>
    <path fill="none" stroke="#ffa500" d="M 52.5 183 L 52.5 16"/>
    <path fill="none" stroke="#ffa500" d="M 52.5 16 L 51.5 16"/>
    <path fill="none" stroke="#808080" d="M 51.5 16 L 197.85938 100.5"/>
    <path fill="none" stroke="#808080" d="M 197.85938 100.5 L 198.35938 99.63281"/>
    <path fill="none" stroke="#00ffff" d="M 198.35938 99.63281 L 50.26953 185.13281"/>
    <path fill="none" stroke="#00ffff" d="M 50.26953 185.13281 L 50.76953 186"/>
    <path fill="none" stroke="#00ff00" d="M 50.76953 186 L 50.76953 13"/>
    <path fill="none" stroke="#00ff00" d="M 50.76953 13 L 49.769535 13"/>
    <path fill="none" stroke="#ff0000" d="M 49.769535 13 L 201.32422 100.5"/>
    <path fill="none" stroke="#ff0000" d="M 201.32422 100.5 L 201.82422 99.63281"/>
    <path fill="none" stroke="#ff00ff" d="M 201.82422 99.63281 L 48.539063 188.1328"/>
    <path fill="none" stroke="#ff00ff" d="M 48.539063 188.1328 L 49.039063 189"/>
    <path fill="none" stroke="#ffff00" d="M 49.039063 189 L 49.039063 10"/>
    <path fill="none" stroke="#ffff00" d="M 49.039063 10 L 48.03906 10"/>
    <path fill="none" stroke="#ffffff" d="M 48.03906 10 L 204.78906 100.5"/>
    <path fill="none" stroke="#ffffff" d="M 204.78906 100.5 L 205.28906 99.63281"/>
    <path fill="none" stroke="#a52a2a" d="M 205.28906 99.63281 L 46.80469 191.13281"/>
    <path fill="none" stroke="#a52a2a" d="M 46.80469 191.13281 L 47.304688 192"/>
    <path fill="none" stroke="#d2b48c" d="M 47.304688 192 L 47.304688 7"/>
    <path fill="none" stroke="#d2b48c" d="M 47.304688 7 L 46.304688 7"/>
    <path fill="none" stroke="#228b22" d="M 46.304688 7 L 208.2539 100.5"/>
    <path fill="none" stroke="#228b22" d="M 208.2539 100.5 L 208.7539 99.63281"/>
    <path fill="none" stroke="#7fffd4" d="M 208.7539 99.63281 L 45.07422 194.13281"/>
    <path fill="none" stroke="#7fffd4" d="M 45.07422 194.13281 L 45.574223 195"/>
    <path fill="none" stroke="#fa8072" d="M 45.574223 195 L 45.574223 4"/>
    <path fill="none" stroke="#fa8072" d="M 45.574223 4 L 44.57422 4"/>
    <path fill="none" stroke="#800080" d="M 44.57422 4 L 211.71877 100.5"/>
    <path fill="none" stroke="#800080" d="M 211.71877 100.5 L 212.21875 99.63281"/>
    <path fill="none" stroke="#ffa500" d="M 212.21875 99.63281 L 43.34375 197.13283"/>
    <path fill="none" stroke="#ffa500" d="M 43.34375 197.13283 L 43.843746 198"/>
    <path fill="none" stroke="#808080" d="M 43.843746 198 L 43.843746 1"/>
    <path fill="none" stroke="#808080" d="M 43.843746 1 L 42.84375 1"/>
    <path fill="none" stroke="#00ffff" d="M 42.84375 1 L 215.18358 100.5"/>
    <path fill="none" stroke="#00ffff" d="M 215.18358 100.5 L 215.68358 99.63281"/>
    <path fill="none" stroke="#00ff00" d="M 215.68358 99.63281 L 41.61328 200.13281"/>
    <path fill="none" stroke="#00ff00" d="M 41.61328 200.13281 L 42.11328 201"/>
    <path fill="none" stroke="#ff0000" d="M 42.11328 201 L 42.11328 -2"/>
    <path fill="none" stroke="#ff0000" d="M 42.11328 -2 L 41.11328 -2"/>
</svg>
